# xmcd
#
# Track frame offsets:
#	150
#	18638
#	30392
#	43895
#	58158
#	75608
#	92342
#	105287
#	121913
#	138179
#	155012
#	171899
#	186890
#	204716
#	220742
#	239663
#	256990
#	272732
#	289331
#	305690
#
# Disc length: 4328 seconds
#
# Revision: 1
# Processed by: cddbd v1.5.2PL0 Copyright (c) Steve Scherf et al.
# Submitted via: audiograbber 1.83.01
#
DISCID=2010e614
DTITLE=Various Artist - VA - Summer Heat - CD 2 - 2
DYEAR=2008
DGENRE=Dance
TTITLE0=Elastinen - H‰ivyt‰‰n
TTITLE1=Traschan Jack Vs. Billy Idol - Club Wedding
TTITLE2=Dr. Alban - Don't Joke With Fire
TTITLE3=Ian Oliver Feat. Shantel - Bucovina
TTITLE4=Soundblunz - Billie Jean ( Kut and Swel Radio )
TTITLE5=Shaun Baker - Power
TTITLE6=Elvis Presley - Baby Let's Play House
TTITLE7=Katie Jewels - Burning Love
TTITLE8=Lexter - Freedom To Love ( Original Guitar Edit )
TTITLE9=September - Until I Die
TTITLE10=Akcent - Let's Talk About It
TTITLE11=Stereoliza - X.Y.Z ( Clean Radio Edit )
TTITLE12=Dacia - Muistot
TTITLE13=Hausmylly - Miss Maailma
TTITLE14=Topmodelz - Living On A Prayer
TTITLE15=JMZ - Mindtravellers Inc
TTITLE16=Forseco - Calling Girls
TTITLE17=Chorale - Tahtoisin Lent‰‰
TTITLE18=DJ Remo - My Music Song
TTITLE19=Basic Element - Devotion
EXTD=VA - Summer Heat - CD 2 - 2
EXTT0=
EXTT1=
EXTT2=
EXTT3=
EXTT4=
EXTT5=
EXTT6=
EXTT7=
EXTT8=
EXTT9=
EXTT10=
EXTT11=
EXTT12=
EXTT13=
EXTT14=
EXTT15=
EXTT16=
EXTT17=
EXTT18=
EXTT19=
PLAYORDER=
